<?xml version="1.0" encoding="UTF-8"?>
<svg width="242px" height="265px" viewBox="0 0 242 265" version="1.1" xmlns="http://www.w3.org/2000/svg" xmlns:xlink="http://www.w3.org/1999/xlink">
    <!-- Generator: Sketch 58 (84663) - https://sketch.com -->
    <title>icon2 copy 3</title>
    <desc>Created with Sketch.</desc>
    <g id="Page-1" stroke="none" stroke-width="1" fill="none" fill-rule="evenodd">
        <g id="icon2-copy-3" transform="translate(-4.000000, 9.000000)">
            <path d="M136.891514,6.78318171 L221.144689,54.8430521 C228.631388,59.1136302 233.253175,67.0708429 233.253175,75.6899201 L233.253175,171.31008 C233.253175,179.929157 228.631388,187.88637 221.144689,192.156948 L136.891514,240.216818 C129.521224,244.420994 120.478776,244.420994 113.108486,240.216818 L28.855311,192.156948 C21.3686125,187.88637 16.7468245,179.929157 16.7468245,171.31008 L16.7468245,75.6899201 C16.7468245,67.0708429 21.3686125,59.1136302 28.855311,54.8430521 L113.108486,6.78318171 C120.478776,2.57900573 129.521224,2.57900573 136.891514,6.78318171 Z" id="ффффф" stroke="#F9F4F0" stroke-width="24" fill="#FFFFFF" stroke-linejoin="round"></path>
            <g id="beehive" transform="translate(65.000000, 65.000000)" fill-rule="nonzero">
                <path d="M43.9999479,62.0000703 C49.6493965,62.0000703 54.697431,59.380639 58.0000521,55.2951606 L58.0000521,64.0000352 C58.0000521,65.1039651 58.8960794,66 60,66 C61.1039206,66 61.9999479,65.1039651 61.9999479,64.0000352 L61.9999479,55.2951606 C65.3028034,59.380639 70.3506035,62.0000703 76.0000521,62.0000703 C77.1039727,62.0000703 78,61.1040354 78,60.0001055 C78,58.8961755 77.1039727,58.0001406 76.0000521,58.0001406 C68.9328507,58.0001406 63.0762119,52.7364338 62.1354184,45.9239437 C64.6681077,48.441654 68.1551843,50.0000469 72.0001563,50.0000469 C73.1040769,50.0000469 74.0001042,49.104012 74.0001042,48.000082 C74.0001042,46.8961521 73.1040769,46.0001172 72.0001563,46.0001172 C66.4861782,46.0001172 61.9999479,41.5140833 61.9999479,35.9998242 L61.9999479,35.9944335 C63.6724697,37.2528199 65.7504655,38.0000234 68.000026,38.0000234 C69.1039467,38.0000234 69.999974,37.1039886 69.999974,36.0000586 C69.999974,34.8961286 69.1039467,34.0000938 68.000026,34.0000938 C64.6920142,34.0000938 61.9999479,31.3080047 61.9999479,27.9999648 C61.9999479,26.8960349 61.1039206,26 60,26 C58.8960794,26 58.0000521,26.8960349 58.0000521,27.9999648 C58.0000521,31.3080047 55.3079858,34.0000938 51.999974,34.0000938 C50.8960533,34.0000938 50.000026,34.8961286 50.000026,36.0000586 C50.000026,37.1039886 50.8960533,38.0000234 51.999974,38.0000234 C54.2495345,38.0000234 56.3275303,37.2530543 58.0000521,35.9944335 L58.0000521,35.9998242 C58.0000521,41.5138489 53.5140562,46.0001172 47.9998437,46.0001172 C46.8959231,46.0001172 45.9998958,46.8961521 45.9998958,48.000082 C45.9998958,49.104012 46.8959231,50.0000469 47.9998437,50.0000469 C51.8448157,50.0000469 55.3318923,48.441654 57.8645816,45.9239437 C56.9237881,52.7364338 51.0669149,58.0001406 43.9999479,58.0001406 C42.8960273,58.0001406 42,58.8961755 42,60.0001055 C42,61.1040354 42.8960273,62.0000703 43.9999479,62.0000703 Z" id="Path" fill="#EB6D2F"></path>
                <path d="M42,34.0001055 C42,32.8961755 41.1039727,32.0001406 40.0000521,32.0001406 C32.9328507,32.0001406 27.0762119,26.7364338 26.1354184,19.9239437 C28.6681077,22.441654 32.1551843,24.0000469 36.0001563,24.0000469 C37.1040769,24.0000469 38.0001042,23.104012 38.0001042,22.000082 C38.0001042,20.8961521 37.1040769,20.0001172 36.0001563,20.0001172 C30.4861782,20.0001172 25.9999479,15.5140833 25.9999479,9.99982421 L25.9999479,9.99443347 C27.6724697,11.2528199 29.7504655,12.0000234 32.000026,12.0000234 C33.1039467,12.0000234 33.999974,11.1039886 33.999974,10.0000586 C33.999974,8.89612863 33.1039467,8.00009375 32.000026,8.00009375 C28.6920142,8.00009375 25.9999479,5.30800466 25.9999479,1.99996484 C25.9999479,0.896034876 25.1039206,0 24,0 C22.8960794,0 22.0000521,0.896034876 22.0000521,1.99996484 C22.0000521,5.30800466 19.3079858,8.00009375 15.999974,8.00009375 C14.8960533,8.00009375 14.000026,8.89612863 14.000026,10.0000586 C14.000026,11.1039886 14.8960533,12.0000234 15.999974,12.0000234 C18.2495345,12.0000234 20.3275303,11.2528199 22.0000521,9.99443347 L22.0000521,9.99982421 C22.0000521,15.5138489 17.5140562,20.0001172 11.9998437,20.0001172 C10.8959231,20.0001172 9.99989583,20.8961521 9.99989583,22.000082 C9.99989583,23.104012 10.8959231,24.0000469 11.9998437,24.0000469 C15.8448157,24.0000469 19.3318923,22.441654 21.8645816,19.9239437 C20.9237881,26.7364338 15.0669149,32.0001406 7.99994792,32.0001406 C6.89602729,32.0001406 6,32.8961755 6,34.0001055 C6,35.1040354 6.89602729,36.0000703 7.99994792,36.0000703 C13.6493965,36.0000703 18.697431,33.380639 22.0000521,29.2951606 L22.0000521,38.0000352 C22.0000521,39.1039651 22.8960794,40 24,40 C25.1039206,40 25.9999479,39.1039651 25.9999479,38.0000352 L25.9999479,29.2951606 C29.3028034,33.380639 34.3506035,36.0000703 40.0000521,36.0000703 C41.1039727,36.0000703 42,35.1040354 42,34.0001055 Z" id="Path" fill="#EB6D2F"></path>
                <path d="M94.0001823,29.2951606 L94.0001823,38.0000352 C94.0001823,39.1039651 94.8940944,40 96.0001172,40 C97.10614,40 98.0000521,39.1039651 98.0000521,38.0000352 L98.0000521,29.2958638 C101.302417,33.3808734 106.34995,36.0000703 112.000065,36.0000703 C113.106088,36.0000703 114,35.1040354 114,34.0001055 C114,32.8961755 113.106088,32.0001406 112.000065,32.0001406 C104.93455,32.0001406 99.0760747,26.735965 98.1352873,19.9232405 C100.668194,22.4414196 104.155717,24.0000469 107.999961,24.0000469 C109.105984,24.0000469 109.999896,23.104012 109.999896,22.000082 C109.999896,20.8961521 109.105984,20.0001172 107.999961,20.0001172 C102.486019,20.0001172 97.9998177,15.5140833 97.9998177,9.99982421 L97.9998177,9.99443347 C99.6723286,11.2528199 101.750311,12.0000234 103.999857,12.0000234 C105.10588,12.0000234 105.999792,11.1039886 105.999792,10.0000586 C105.999792,8.89612863 105.10588,8.00009375 103.999857,8.00009375 C100.691866,8.00009375 97.9998177,5.30800466 97.9998177,1.99996484 C97.9998177,0.896034876 97.1059056,0 95.9998828,0 C94.89386,0 93.9999479,0.896034876 93.9999479,1.99996484 C93.9999479,5.30800466 91.3078991,8.00009375 87.9999089,8.00009375 C86.8959954,8.00009375 85.999974,8.89612863 85.999974,10.0000586 C85.999974,11.1039886 86.8959954,12.0000234 87.9999089,12.0000234 C90.2494547,12.0000234 92.327437,11.2528199 93.9999479,9.99443347 L93.9999479,9.99982421 C93.9999479,15.5138489 89.5139812,20.0001172 83.9998047,20.0001172 C82.8958912,20.0001172 81.9998698,20.8961521 81.9998698,22.000082 C81.9998698,23.104012 82.8958912,24.0000469 83.9998047,24.0000469 C87.8447516,24.0000469 91.3318055,22.441654 93.8644783,19.9239437 C92.9236909,26.7364338 87.0668559,32.0001406 79.9999349,32.0001406 C78.8960215,32.0001406 78,32.8961755 78,34.0001055 C78,35.1040354 78.8960215,36.0000703 79.9999349,36.0000703 C85.6495811,36.0000703 90.6973483,33.380639 94.0001823,29.2951606 Z" id="Path" fill="#EB6D2F"></path>
                <path d="M61.3296377,72.50551 C60.5716505,71.8314967 59.4276383,71.8314967 58.6715262,72.50551 L40.671088,88.5062945 C40.051151,89.0582074 39.835052,89.936112 40.1310749,90.712071 C40.4249883,91.4899048 41.169147,92.0019768 41.9990891,92.0019768 L43.999294,92.0019768 L43.999294,110.000662 L43.999294,116.000224 C43.999294,117.10405 44.8953314,118 45.9992646,118 C47.1031977,118 47.9992351,117.10405 47.9992351,116.000224 L47.9992351,112.000438 L71.9998193,112.000438 L71.9998193,116.000224 C71.9998193,117.10405 72.8958568,118 73.9997899,118 C75.103723,118 75.9997604,117.10405 75.9997604,116.000224 L75.9997604,110.000662 L75.9997604,92.0019768 L77.999731,92.0019768 C78.8296731,92.0019768 79.5738318,91.4899048 79.8698547,90.712071 C80.1637681,89.936112 79.9497785,89.0582074 79.3298415,88.5062945 L61.3296377,72.50551 Z M59.9995272,76.6752054 L72.7397592,88.0024251 L47.2592952,88.0024251 L59.9995272,76.6752054 Z M72.0000537,108.000886 L47.9994695,108.000886 L47.9994695,92.0019768 L72.0000537,92.0019768 L72.0000537,108.000886 Z" id="Shape" fill="#F6BB05"></path>
                <path d="M119.32795,64.5062945 L101.32752,48.50551 C100.569533,47.8314967 99.4295054,47.8314967 98.6715185,48.50551 L80.6710877,64.5062945 C80.051151,65.0582074 79.8350521,65.936112 80.1310748,66.712071 C80.4249881,67.4899048 81.1691465,68.0019768 81.9990883,68.0019768 L83.9992924,68.0019768 L83.9992924,86.0006623 L83.9992924,92.0002242 C83.9992924,93.1040498 84.8953294,94 85.9992621,94 C87.1031948,94 87.9992318,93.1040498 87.9992318,92.0002242 L87.9992318,88.0004381 L111.999806,88.0004381 L111.999806,92.0002242 C111.999806,93.1040498 112.893734,94 113.999776,94 C115.105818,94 115.999746,93.1040498 115.999746,92.0002242 L115.999746,86.0006623 L115.999746,68.0019768 L117.999481,68.0019768 C118.829423,68.0019768 119.573581,67.4899048 119.869604,66.712071 C120.163986,65.936112 119.949996,65.0582074 119.32795,64.5062945 Z M99.999519,52.6752054 L112.739746,64.0024251 L87.2590579,64.0024251 L99.999519,52.6752054 Z M112.000041,84.0008865 L87.9994662,84.0008865 L87.9994662,68.0019768 L112.000041,68.0019768 L112.000041,84.0008865 L112.000041,84.0008865 Z" id="Shape" fill="#F6BB05"></path>
                <path d="M21.3297627,48.50551 C20.5717711,47.8314967 19.4277521,47.8314967 18.6716356,48.50551 L0.671091932,64.5062945 C0.0511513348,65.0582074 -0.164948942,65.936112 0.131075624,66.712071 C0.42499075,67.4899048 1.16915385,68.0019768 1.99910079,68.0019768 L3.99931745,68.0019768 L3.99931745,86.0006623 L3.99931745,92.0002242 C3.99931745,93.1040498 4.89536013,94 5.99929972,94 C7.10323931,94 7.999282,93.1040498 7.999282,92.0002242 L7.999282,88.0004381 L32,88.0004381 L32,92.0002242 C32,93.1040498 32.8960495,94 33.9999891,94 C35.1039287,94 35.9999714,93.1040498 35.9999714,92.0002242 L35.9999714,86.0006623 L35.9999714,68.0019768 L37.9997193,68.0019768 C38.8296662,68.0019768 39.5738293,67.4899048 39.8698539,66.712071 C40.163769,65.936112 39.9497782,65.0582074 39.3298376,64.5062945 L21.3297627,48.50551 Z M19.9996444,52.6752054 L32.7399511,64.0024251 L7.25933778,64.0024251 L19.9996444,52.6752054 Z M32.0002412,84.0008865 L7.99951638,84.0008865 L7.99951638,68.0019768 L32.0002412,68.0019768 L32.0002412,84.0008865 Z" id="Shape" fill="#F6BB05"></path>
            </g>
        </g>
    </g>
</svg>