<?xml version="1.0" encoding="UTF-8"?>
<svg width="242px" height="265px" viewBox="0 0 242 265" version="1.1" xmlns="http://www.w3.org/2000/svg" xmlns:xlink="http://www.w3.org/1999/xlink">
    <!-- Generator: Sketch 58 (84663) - https://sketch.com -->
    <title>icon2 copy 2</title>
    <desc>Created with Sketch.</desc>
    <g id="Page-1" stroke="none" stroke-width="1" fill="none" fill-rule="evenodd">
        <g id="icon2-copy-2" transform="translate(-4.000000, 9.000000)">
            <path d="M136.891514,6.78318171 L221.144689,54.8430521 C228.631388,59.1136302 233.253175,67.0708429 233.253175,75.6899201 L233.253175,171.31008 C233.253175,179.929157 228.631388,187.88637 221.144689,192.156948 L136.891514,240.216818 C129.521224,244.420994 120.478776,244.420994 113.108486,240.216818 L28.855311,192.156948 C21.3686125,187.88637 16.7468245,179.929157 16.7468245,171.31008 L16.7468245,75.6899201 C16.7468245,67.0708429 21.3686125,59.1136302 28.855311,54.8430521 L113.108486,6.78318171 C120.478776,2.57900573 129.521224,2.57900573 136.891514,6.78318171 Z" id="ффффф" stroke="#F9F4F0" stroke-width="24" fill="#FFFFFF" stroke-linejoin="round"></path>
            <g id="lemonade" transform="translate(72.000000, 64.000000)" fill-rule="nonzero">
                <path d="M98,41 C98,39.8955 97.1045,39 96,39 C94.8955,39 94,39.8955 94,41 L94,45 C94,46.1045 94.8955,47 96,47 C97.1045,47 98,46.1045 98,45 L98,41 Z" id="Path" fill="#F6BB05"></path>
                <path d="M96,58 C97.1045,58 98,57.1045 98,56 L98,52 C98,50.8955 97.1045,50 96,50 C94.8955,50 94,50.8955 94,52 L94,56 C94,57.1045 94.8955,58 96,58 Z" id="Path" fill="#F6BB05"></path>
                <path d="M92,46 L88,46 C86.8955,46 86,46.8955 86,48 C86,49.1045 86.8955,50 88,50 L92,50 C93.1045,50 94,49.1045 94,48 C94,46.8955 93.1045,46 92,46 Z" id="Path" fill="#F6BB05"></path>
                <path d="M104,46 L100,46 C98.8955,46 98,46.8955 98,48 C98,49.1045 98.8955,50 100,50 L104,50 C105.1045,50 106,49.1045 106,48 C106,46.8955 105.1045,46 104,46 Z" id="Path" fill="#F6BB05"></path>
                <path d="M79.5,76 C83.0838214,76 86,72.8595 86,69 C86,65.1405 83.0838214,62 79.5,62 C75.9161786,62 73,65.1405 73,69 C73,72.8595 75.9161786,76 79.5,76 Z M79.5,66 C81.0363214,66 82.2857143,67.3455 82.2857143,69 C82.2857143,70.6545 81.0363214,72 79.5,72 C77.9636786,72 76.7142857,70.6545 76.7142857,69 C76.7142857,67.3455 77.9636786,66 79.5,66 Z" id="Shape" fill="#F6BB05"></path>
                <path d="M62,55.0002338 C62,56.1048755 62.8955922,57 63.9997662,57 C65.1039401,57 66,56.1044078 66,55.0002338 C66,53.8960599 65.1044078,53 63.9997662,53 C62.8951245,53 62,53.8960599 62,55.0002338 Z" id="Path" fill="#F6BB05"></path>
                <path d="M77,36.0002338 C77,34.8955922 76.1044078,34 74.9997662,34 C73.8951245,34 73,34.8955922 73,36.0002338 C73,37.1048755 73.8955922,38 74.9997662,38 C76.1039401,38 77,37.1048755 77,36.0002338 Z" id="Path" fill="#F6BB05"></path>
                <path d="M37,73 C37,69.6915 34.3085,67 31,67 C27.6915,67 25,69.6915 25,73 C25,76.3085 27.6915,79 31,79 C34.3085,79 37,76.3085 37,73 Z M29,73 C29,71.8975 29.8975,71 31,71 C32.1025,71 33,71.8975 33,73 C33,74.1025 32.1025,75 31,75 C29.8975,75 29,74.1025 29,73 Z" id="Shape" fill="#F6BB05"></path>
                <circle id="Oval" fill="#F6BB05" cx="23" cy="93" r="2"></circle>
                <circle id="Oval" fill="#F6BB05" cx="29" cy="102" r="2"></circle>
                <circle id="Oval" fill="#F6BB05" cx="15" cy="108" r="2"></circle>
                <circle id="Oval" fill="#F6BB05" cx="13" cy="79" r="2"></circle>
                <path d="M103.079259,85.1612903 L43.8296804,85.1612903 L46.0947142,42.6846774 C46.1230452,42.1533871 45.933372,41.6346774 45.5713123,41.2490323 C45.2082923,40.8633871 44.7040977,40.6451613 44.1768543,40.6451613 L34.5731492,40.6451613 L34.5731492,25.0417742 C36.7661553,24.5574194 38.4146312,22.5904839 38.4146312,20.2374194 L38.4146312,19.3548387 L95.0764915,19.3548387 C97.724233,19.3548387 99.8783441,17.1841935 99.8783441,14.516129 C99.8783441,11.8480645 97.724233,9.67741935 95.0764915,9.67741935 L38.4146312,9.67741935 L38.4146312,8.79483871 C38.4146312,6.07935484 36.2225856,3.87096774 33.5282661,3.87096774 L30.3777706,3.87096774 C29.5825838,1.62290323 27.4702489,0 24.9694441,0 C23.4885527,0 22.1497962,0.581612903 21.127962,1.51016129 C20.1061278,0.581612903 18.7673713,0 17.28648,0 C14.7856752,0 12.6738204,1.62290323 11.8781534,3.87096774 L8.72765796,3.87096774 C6.0328583,3.87096774 3.84129279,6.07935484 3.84129279,8.79483871 L3.84129279,20.2374194 C3.84129279,22.9529032 6.0328583,25.1612903 8.72765796,25.1612903 L11.8786336,25.1612903 C12.6738204,27.4093548 14.7861553,29.0322581 17.2869602,29.0322581 L17.2869602,40.6451613 L1.92055176,40.6451613 C1.39330835,40.6451613 0.889113834,40.8633871 0.527054151,41.2490323 C0.164034097,41.6346774 -0.0251588942,42.1533871 0.00269185068,42.6846774 L4.02712448,118.168548 C4.08138542,119.195806 4.92459073,120 5.9449844,120 L40.1524217,120 C41.1728154,120 42.0160207,119.195806 42.0702816,118.168548 L42.4073717,111.840968 C49.0531356,116.904677 57.7228804,120 67.2257466,120 C88.0547425,120 105,105.24 105,87.0967742 C105,86.0279032 104.139988,85.1612903 103.079259,85.1612903 L103.079259,85.1612903 Z M93.9874313,89.0322581 C92.8191406,100.735161 81.1564011,110.045806 67.2257466,110.045806 C53.077088,110.045806 41.6117047,100.909839 40.461661,89.0322581 L93.9874313,89.0322581 Z M95.0764915,13.5483871 C95.606616,13.5483871 96.036862,13.9819355 96.036862,14.516129 C96.036862,15.0503226 95.606616,15.483871 95.0764915,15.483871 L38.4146312,15.483871 L38.4146312,13.5483871 L95.0764915,13.5483871 Z M34.5731492,8.79483871 L34.5731492,20.2374194 C34.5731492,20.8175806 34.1040082,21.2903226 33.5282661,21.2903226 L30.7316671,21.2903226 L30.7316671,7.74193548 L33.5282661,7.74193548 C34.1040082,7.74193548 34.5731492,8.21467742 34.5731492,8.79483871 Z M24.9694441,3.87096774 C26.0282526,3.87096774 26.8901851,4.73951613 26.8901851,5.80645161 L26.8901851,23.2258065 C26.8901851,24.2927419 26.0282526,25.1612903 24.9694441,25.1612903 C23.9106356,25.1612903 23.048703,24.2927419 23.048703,23.2258065 L23.048703,5.80645161 C23.048703,4.73951613 23.9106356,3.87096774 24.9694441,3.87096774 Z M7.68277484,20.2374194 L7.68277484,8.79483871 C7.68277484,8.21467742 8.15143565,7.74193548 8.72765796,7.74193548 L11.5242569,7.74193548 L11.5242569,21.2903226 L8.72765796,21.2903226 C8.15143565,21.2903226 7.68277484,20.8175806 7.68277484,20.2374194 Z M15.3657389,23.2258065 L15.3657389,5.80645161 C15.3657389,4.73951613 16.2276715,3.87096774 17.28648,3.87096774 C18.3452885,3.87096774 19.207221,4.73951613 19.207221,5.80645161 L19.207221,23.2258065 C19.207221,24.2927419 18.3452885,25.1612903 17.28648,25.1612903 C16.2276715,25.1612903 15.3657389,24.2927419 15.3657389,23.2258065 Z M21.127962,27.5220968 C22.1497962,28.4506452 23.4880726,29.0322581 24.9694441,29.0322581 C27.4702489,29.0322581 29.5821036,27.4093548 30.3777706,25.1612903 L30.7316671,25.1612903 L30.7316671,41.6129032 C30.7316671,42.1470968 30.3014212,42.5806452 29.7712966,42.5806452 L27.8505556,42.5806452 C27.7612411,42.5806452 27.6575211,42.558871 27.5307522,42.5133871 C26.9425253,42.3053226 26.2899535,42.3953226 25.7814373,42.7582258 C25.2719608,43.1201613 24.9694441,43.71 24.9694441,44.3385484 L24.9694441,49.3548387 C24.9694441,49.8890323 24.5391981,50.3225806 24.0090736,50.3225806 L22.0883325,50.3225806 C21.558208,50.3225806 21.127962,49.8890323 21.127962,49.3548387 L21.127962,27.7717742 C21.127962,27.6958065 21.0933887,27.6314516 21.0852255,27.5579032 C21.0986707,27.5453226 21.1140366,27.5346774 21.127962,27.5220968 L21.127962,27.5220968 Z M17.28648,44.516129 L17.28648,49.3548387 C17.28648,52.0229032 19.440591,54.1935484 22.0883325,54.1935484 L24.0090736,54.1935484 C26.6568151,54.1935484 28.8109261,52.0229032 28.8109261,49.3548387 L28.8109261,46.4516129 L29.7712966,46.4516129 C31.3338195,46.4516129 32.7109908,45.6841935 33.5882892,44.516129 L42.1499924,44.516129 L41.4273135,58.0645161 L4.66913217,58.0645161 L3.94693355,44.516129 L17.28648,44.516129 Z M38.3320394,116.129032 L7.7653667,116.129032 L4.87609202,61.9354839 L41.2213141,61.9354839 L39.9829163,85.1612903 L31.3722343,85.1612903 C30.311505,85.1612903 29.4514933,86.0279032 29.4514933,87.0967742 C29.4514933,95.3337097 32.9688503,102.853548 38.7320337,108.631452 L38.3320394,116.129032 Z M67.2257466,116.129032 C49.2759416,116.129032 34.5366551,104.141129 33.3678842,89.0322581 L36.6086545,89.0322581 C37.7462134,103.070806 50.9325807,113.916774 67.2257466,113.916774 C83.548684,113.916774 96.7091214,103.08 97.8413982,89.0322581 L101.083609,89.0322581 C99.9148381,104.141129 85.1755517,116.129032 67.2257466,116.129032 Z" id="Shape" fill="#EB6D2F"></path>
                <path d="M67,97 C68.1045,97 69,96.1045 69,95 L69,93 C69,91.8955 68.1045,91 67,91 C65.8955,91 65,91.8955 65,93 L65,95 C65,96.1045 65.8955,97 67,97 Z" id="Path" fill="#F6BB05"></path>
                <path d="M75.5859655,96.4139756 C75.976498,96.8044919 76.4885407,97 77.0000833,97 C77.511626,97 78.0236686,96.8044919 78.4142012,96.4139756 C79.1952663,95.632943 79.1952663,94.3668903 78.4142012,93.5858577 L76.4140345,91.5857744 C75.6329694,90.8047419 74.3668639,90.8047419 73.5857988,91.5857744 C72.8047337,92.366807 72.8047337,93.6328597 73.5857988,94.4138922 L75.5859655,96.4139756 Z" id="Path" fill="#F6BB05"></path>
                <path d="M57.9999167,97 C58.5114593,97 59.023502,96.8044919 59.4140345,96.4139756 L61.4142012,94.4138922 C62.1952663,93.6328597 62.1952663,92.366807 61.4142012,91.5857744 C60.6331361,90.8047419 59.3670306,90.8047419 58.5859655,91.5857744 L56.5857988,93.5858577 C55.8047337,94.3668903 55.8047337,95.632943 56.5857988,96.4139756 C56.9763314,96.8044919 57.487874,97 57.9999167,97 Z" id="Path" fill="#F6BB05"></path>
            </g>
        </g>
    </g>
</svg>