<?xml version="1.0" encoding="UTF-8"?>
<svg width="242px" height="265px" viewBox="0 0 242 265" version="1.1" xmlns="http://www.w3.org/2000/svg" xmlns:xlink="http://www.w3.org/1999/xlink">
    <!-- Generator: Sketch 58 (84663) - https://sketch.com -->
    <title>icon2 copy 4</title>
    <desc>Created with Sketch.</desc>
    <g id="Page-1" stroke="none" stroke-width="1" fill="none" fill-rule="evenodd">
        <g id="icon2-copy-4" transform="translate(-4.000000, 9.000000)">
            <path d="M136.891514,6.78318171 L221.144689,54.8430521 C228.631388,59.1136302 233.253175,67.0708429 233.253175,75.6899201 L233.253175,171.31008 C233.253175,179.929157 228.631388,187.88637 221.144689,192.156948 L136.891514,240.216818 C129.521224,244.420994 120.478776,244.420994 113.108486,240.216818 L28.855311,192.156948 C21.3686125,187.88637 16.7468245,179.929157 16.7468245,171.31008 L16.7468245,75.6899201 C16.7468245,67.0708429 21.3686125,59.1136302 28.855311,54.8430521 L113.108486,6.78318171 C120.478776,2.57900573 129.521224,2.57900573 136.891514,6.78318171 Z" id="ффффф" stroke="#F9F4F0" stroke-width="24" fill="#FFFFFF" stroke-linejoin="round"></path>
            <g id="drop" transform="translate(68.000000, 64.000000)" fill-rule="nonzero">
                <path d="M7.5,44 C3.36482143,44 0,47.3648214 0,51.5 C0,55.6351786 3.36482143,59 7.5,59 C11.6351786,59 15,55.6351786 15,51.5 C15,47.3648214 11.6351786,44 7.5,44 Z M7.5,54.7142857 C5.72732143,54.7142857 4.28571429,53.2726786 4.28571429,51.5 C4.28571429,49.7273214 5.72732143,48.2857143 7.5,48.2857143 C9.27267857,48.2857143 10.7142857,49.7273214 10.7142857,51.5 C10.7142857,53.2726786 9.27267857,54.7142857 7.5,54.7142857 Z" id="Shape" fill="#F6BB05"></path>
                <path d="M104,34 C105.1045,34 106,33.1045 106,32 L106,28 C106,26.8955 105.1045,26 104,26 C102.8955,26 102,26.8955 102,28 L102,32 C102,33.1045 102.8955,34 104,34 Z" id="Path" fill="#F6BB05"></path>
                <path d="M104,39 C102.8955,39 102,39.8955 102,41 L102,45 C102,46.1045 102.8955,47 104,47 C105.1045,47 106,46.1045 106,45 L106,41 C106,39.8955 105.1045,39 104,39 Z" id="Path" fill="#F6BB05"></path>
                <path d="M96,38 L100,38 C101.1045,38 102,37.1045 102,36 C102,34.8955 101.1045,34 100,34 L96,34 C94.8955,34 94,34.8955 94,36 C94,37.1045 94.8955,38 96,38 Z" id="Path" fill="#F6BB05"></path>
                <path d="M113,34 L109,34 C107.8955,34 107,34.8955 107,36 C107,37.1045 107.8955,38 109,38 L113,38 C114.1045,38 115,37.1045 115,36 C115,34.8955 114.1045,34 113,34 Z" id="Path" fill="#F6BB05"></path>
                <path d="M108.999766,17 C110.104408,17 111,16.1044078 111,15.0002338 C111,13.8960599 110.104408,13 108.999766,13 C107.895125,13 107,13.8955922 107,15.0002338 C107,16.1048755 107.895592,17 108.999766,17 Z" id="Path" fill="#F6BB05"></path>
                <path d="M60,9 C45.1309146,9 17,53.6937311 17,77.3173585 C17,100.851976 36.2896951,120 60,120 C83.7103049,120 103,100.8525 103,77.3173585 C103,53.6937311 74.8690854,9 60,9 Z M60,115.811321 C38.6022561,115.811321 21.195122,98.5434906 21.195122,77.3173585 C21.195122,54.6005802 48.4041585,13.1886792 60,13.1886792 C71.5958415,13.1886792 98.804878,54.6011038 98.804878,77.3173585 C98.804878,98.542967 81.3977439,115.811321 60,115.811321 Z" id="Shape" fill="#EB6D2F"></path>
                <path d="M49.2415292,52.0588235 L40.2767839,67.9411765 C39.9077387,68.5965882 39.9077387,69.4034118 40.2767839,70.0588235 L49.2415292,85.9411765 C49.6116097,86.5965882 50.294835,87 51.0349959,87 L68.9650041,87 C69.705165,87 70.3883903,86.5965882 70.7584708,85.9411765 L79.7232161,70.0588235 C80.0922613,69.4034118 80.0922613,68.5965882 79.7232161,67.9411765 L70.7584708,52.0588235 C70.3883903,51.4034118 69.705165,51 68.9650041,51 L51.0349959,51 C50.294835,51 49.6116097,51.4028824 49.2415292,52.0588235 Z M67.7698773,55.2352941 L75.5389781,69 L67.7698773,82.7647059 L52.2301227,82.7647059 L44.4610219,69 L52.2301227,55.2352941 L67.7698773,55.2352941 Z" id="Shape" fill="#F6BB05"></path>
                <path d="M59.0005248,20 C52.446708,20 41.3322996,37.7607045 39.1716603,41.3215227 C30.9242844,54.9072045 26,68.0726136 26,76.5381818 C26,82.8495909 27.5938454,89.0794545 30.6093989,94.5560682 C30.9505248,95.1749773 31.5813454,95.5800909 32.2861641,95.6349773 C33.001479,95.6909091 33.677958,95.3866818 34.1119752,94.8284091 C34.923855,93.7819091 36.1293416,93.1818182 37.4198473,93.1818182 C39.7353053,93.1818182 41.6183206,95.0573636 41.6183206,97.3636364 C41.6183206,98.9511591 40.715124,100.381341 39.2608779,101.097477 C38.6232347,101.410068 38.1886927,102.022705 38.1047233,102.724727 C38.0207538,103.42675 38.2994275,104.124591 38.8447042,104.57675 C44.6874046,109.433409 51.657395,112 59.0005248,112 C77.196708,112 92,96.0913182 92,76.5381818 C92,64.5677273 82.4736641,47.9105 78.3775286,41.3042727 C77.0256202,39.1245 64.994895,20 59.0005248,20 L59.0005248,20 Z M87.8015267,76.5381818 C87.8015267,93.7860909 74.88125,107.818182 59.0005248,107.818182 C53.5083969,107.818182 48.2482347,106.149114 43.6404103,102.965705 C45.0222328,101.459727 45.8162691,99.4832955 45.8162691,97.3636364 C45.8162691,92.7521364 42.0491889,89 37.4193225,89 C35.8774332,89 34.4006202,89.4187045 33.1174618,90.1933864 C31.2019084,85.9331591 30.1984733,81.2620682 30.1984733,76.5381818 C30.1984733,57.8721136 54.3150286,24.5932045 58.9553912,24.1849545 C63.2787691,25.2513182 87.8015267,58.5030455 87.8015267,76.5381818 L87.8015267,76.5381818 Z" id="Shape" fill="#EB6D2F"></path>
                <path d="M49.105989,69.7714261 C49.3929405,69.926878 49.6988888,70 49.9983382,70 C50.7327141,70 51.4385949,69.5618098 51.7890356,68.8024245 L55.7883598,60.1361162 C56.2822764,59.0652855 55.882344,57.7642559 54.894011,57.2291114 C53.9031784,56.6939668 52.7038811,57.1283655 52.2109644,58.198113 L48.2116402,66.8644213 C47.7177236,67.9347104 48.117656,69.2357399 49.105989,69.7714261 L49.105989,69.7714261 Z" id="Path" fill="#F6BB05"></path>
                <path d="M81.5923521,9.40782659 C81.9870008,9.80244044 82.5044404,10 83.0213747,10 C83.538309,10 84.0557486,9.80244044 84.4503973,9.40782659 L86.0001895,7.85766617 L87.5499817,9.40782659 C87.9446304,9.80244044 88.46207,10 88.9790043,10 C89.4959386,10 90.0133781,9.80244044 90.4080269,9.40782659 C91.1973244,8.61910416 91.1973244,7.3392618 90.4080269,6.55003411 L88.8577294,4.99987368 L90.4080269,3.44971326 C91.1973244,2.66048556 91.1973244,1.38013794 90.4080269,0.591920774 C89.6187294,-0.197306925 88.3392792,-0.197306925 87.5499817,0.591920774 L86.0001895,2.1420812 L84.4503973,0.591920774 C83.6610998,-0.197306925 82.3816496,-0.197306925 81.5923521,0.591920774 C80.8030546,1.38064321 80.8030546,2.66048556 81.5923521,3.44971326 L83.1426496,4.99987368 L81.5923521,6.55003411 C80.8025493,7.3392618 80.8025493,8.61910416 81.5923521,9.40782659 Z" id="Path" fill="#F6BB05"></path>
            </g>
        </g>
    </g>
</svg>